<?xml version="1.0" encoding="utf-8"?>
<!-- Generator: Adobe Illustrator 24.0.2, SVG Export Plug-In . SVG Version: 6.00 Build 0)  -->
<svg version="1.1" id="Layer_1" xmlns="http://www.w3.org/2000/svg" xmlns:xlink="http://www.w3.org/1999/xlink" x="0px" y="0px"
	 viewBox="0 0 500 500" style="enable-background:new 0 0 500 500;" xml:space="preserve">
<style type="text/css">
	.st0{fill:#8A0505;}
	.st1{fill:#FFFFFF;}
</style>
<g>
	<rect x="39.47" y="69.79" class="st0" width="421.06" height="363.32"/>
	<g>
		<g>
			<path class="st1" d="M157.15,293.42l-3.19,0.77v40.1l3.19,0.87c1.16,0.32,1.74,1.06,1.74,2.22v9.47c0,0.64-0.21,1.19-0.63,1.64
				c-0.42,0.45-0.98,0.68-1.69,0.68h-4.83h-0.1h-12.56h-0.1h-4.83c-0.64,0-1.19-0.22-1.64-0.68c-0.45-0.45-0.68-1-0.68-1.64v-9.47
				c0-1.16,0.58-1.9,1.74-2.22l3.48-0.87l0.58-30.05l-16.23,43.48c-0.45,0.97-1.19,1.45-2.22,1.45h-11.21c-1.1,0-1.8-0.48-2.13-1.45
				L89.7,305.02l0.68,29.28l3.29,0.87c0.51,0.13,0.93,0.4,1.26,0.82c0.32,0.42,0.48,0.89,0.48,1.4v9.47c0,0.64-0.23,1.19-0.68,1.64
				c-0.45,0.45-1.03,0.68-1.74,0.68h-4.83h-0.1H75.5h-4.93c-0.64,0-1.19-0.22-1.64-0.68c-0.45-0.45-0.68-1-0.68-1.64v-9.47
				c0-1.16,0.58-1.9,1.74-2.22l3.19-0.87v-40.1l-3.19-0.77c-1.16-0.32-1.74-1.09-1.74-2.32v-9.47c0-0.64,0.22-1.19,0.68-1.64
				c0.45-0.45,1-0.68,1.64-0.68H95.6c0.51,0,0.98,0.13,1.4,0.39c0.42,0.26,0.69,0.64,0.82,1.16l15.75,42.9l15.36-42.9
				c0.32-1.03,1.06-1.55,2.22-1.55h25.41c0.71,0,1.27,0.23,1.69,0.68c0.42,0.45,0.63,1,0.63,1.64v9.47
				C158.89,292.33,158.31,293.1,157.15,293.42z"/>
			<path class="st1" d="M230.97,335.16c0.51,0.13,0.93,0.4,1.26,0.82c0.32,0.42,0.48,0.89,0.48,1.4v9.47c0,0.71-0.23,1.27-0.68,1.69
				c-0.45,0.42-1.03,0.63-1.74,0.63h-23c-0.64,0-1.19-0.22-1.64-0.68c-0.45-0.45-0.68-1-0.68-1.64l0.1-9.37
				c0-1.16,0.55-1.9,1.64-2.22l2.22-0.68l-2.32-6.96l-16.72-0.1l-1.55,6.96l2.22,0.68c0.51,0.13,0.92,0.4,1.21,0.82
				c0.29,0.42,0.43,0.89,0.43,1.4v9.37v0.1c0,0.71-0.23,1.27-0.68,1.69c-0.45,0.42-1,0.63-1.64,0.63H167
				c-0.64,0-1.19-0.21-1.64-0.63c-0.45-0.42-0.68-0.98-0.68-1.69v-9.37c0-1.16,0.58-1.9,1.74-2.22l4.15-1.16l17.49-53.14
				c0.32-1.09,1.03-1.64,2.13-1.64h17.49c1.16,0,1.9,0.55,2.22,1.64l17.49,53.24L230.97,335.16z M202.85,313.42L198.6,297
				l-4.64,16.52L202.85,313.42z"/>
			<path class="st1" d="M298.41,294.2v40.1l3.19,0.87c1.16,0.32,1.74,1.06,1.74,2.22v9.47c0,0.71-0.23,1.27-0.68,1.69
				c-0.45,0.42-1,0.63-1.64,0.63H278.6c-0.71,0-1.27-0.21-1.69-0.63c-0.42-0.42-0.63-0.98-0.63-1.69v-9.47
				c0-1.16,0.58-1.9,1.74-2.22l3.19-0.87v-12.95h-23.77v12.95l3.29,0.87c0.51,0.13,0.93,0.4,1.26,0.82c0.32,0.42,0.48,0.89,0.48,1.4
				v9.47c0,0.71-0.23,1.27-0.68,1.69c-0.45,0.42-1.03,0.63-1.74,0.63h-22.42c-0.64,0-1.19-0.21-1.64-0.63
				c-0.45-0.42-0.68-0.98-0.68-1.69v-9.47c0-1.16,0.58-1.9,1.74-2.22l3.19-0.87v-40.1l-3.19-0.77c-1.16-0.32-1.74-1.09-1.74-2.32
				v-9.47c0-0.64,0.22-1.19,0.68-1.64c0.45-0.45,1-0.68,1.64-0.68h22.42c0.71,0,1.29,0.23,1.74,0.68c0.45,0.45,0.68,1,0.68,1.64
				v9.47c0,0.52-0.16,1-0.48,1.45c-0.32,0.45-0.74,0.74-1.26,0.87l-3.29,0.77v11.79h23.77V294.2l-3.19-0.77
				c-1.16-0.32-1.74-1.09-1.74-2.32v-9.47c0-0.64,0.22-1.19,0.68-1.64c0.45-0.45,1-0.68,1.64-0.68h22.42c0.64,0,1.19,0.23,1.64,0.68
				c0.45,0.45,0.68,1,0.68,1.64v9.47c0,1.22-0.58,2-1.74,2.32L298.41,294.2z"/>
			<path class="st1" d="M374.84,335.16c0.51,0.13,0.93,0.4,1.26,0.82c0.32,0.42,0.48,0.89,0.48,1.4v9.47c0,0.71-0.23,1.27-0.68,1.69
				c-0.45,0.42-1.03,0.63-1.74,0.63h-23c-0.64,0-1.19-0.22-1.64-0.68c-0.45-0.45-0.68-1-0.68-1.64l0.1-9.37
				c0-1.16,0.55-1.9,1.64-2.22l2.22-0.68l-2.32-6.96l-16.72-0.1l-1.55,6.96l2.22,0.68c0.51,0.13,0.92,0.4,1.21,0.82
				c0.29,0.42,0.43,0.89,0.43,1.4v9.37v0.1c0,0.71-0.23,1.27-0.68,1.69c-0.45,0.42-1,0.63-1.64,0.63h-22.9
				c-0.64,0-1.19-0.21-1.64-0.63c-0.45-0.42-0.68-0.98-0.68-1.69v-9.37c0-1.16,0.58-1.9,1.74-2.22l4.15-1.16l17.49-53.14
				c0.32-1.09,1.03-1.64,2.13-1.64h17.49c1.16,0,1.9,0.55,2.22,1.64l17.49,53.24L374.84,335.16z M346.72,313.42L342.47,297
				l-4.64,16.52L346.72,313.42z"/>
			<path class="st1" d="M429.43,328.88c0.64,0,1.19,0.23,1.64,0.68c0.45,0.45,0.68,1,0.68,1.64v15.65c0,0.71-0.23,1.26-0.68,1.64
				c-0.39,0.45-0.93,0.68-1.64,0.68H381.5c-0.64,0-1.19-0.22-1.64-0.68c-0.45-0.45-0.68-1-0.68-1.64v-9.47
				c0-1.16,0.58-1.9,1.74-2.22l3.19-0.87v-40.1l-3.19-0.77c-1.16-0.32-1.74-1.09-1.74-2.32v-9.47c0-0.64,0.22-1.19,0.68-1.64
				c0.45-0.45,1-0.68,1.64-0.68h22.42c0.71,0,1.29,0.23,1.74,0.68c0.45,0.45,0.68,1,0.68,1.64v9.47c0,0.52-0.16,1-0.48,1.45
				c-0.32,0.45-0.74,0.74-1.26,0.87l-3.29,0.77v39.62h15.56l0.87-3.19c0.13-0.51,0.4-0.93,0.82-1.26c0.42-0.32,0.88-0.48,1.4-0.48
				H429.43z"/>
		</g>
		<g>
			<rect x="68.25" y="153.73" class="st1" width="283.98" height="108.64"/>
			<g>
				<path class="st0" d="M156.47,228.91c0.51,0.13,0.93,0.4,1.26,0.82c0.32,0.42,0.48,0.89,0.48,1.4v9.47
					c0,0.64-0.23,1.19-0.68,1.64c-0.45,0.45-1.03,0.68-1.74,0.68h-11.4c-0.84,0-1.48-0.32-1.93-0.97L122.95,215h-3.77v13.04
					l3.29,0.87c0.51,0.13,0.93,0.4,1.26,0.82c0.32,0.42,0.48,0.89,0.48,1.4v9.47c0,0.71-0.23,1.27-0.68,1.69
					c-0.45,0.42-1.03,0.63-1.74,0.63H99.37c-0.64,0-1.19-0.21-1.64-0.63c-0.45-0.42-0.68-0.98-0.68-1.69v-9.47
					c0-1.16,0.58-1.9,1.74-2.22l3.19-0.87v-40.1l-3.19-0.77c-1.16-0.32-1.74-1.09-1.74-2.32v-9.47c0-0.64,0.22-1.19,0.68-1.64
					c0.45-0.45,1-0.68,1.64-0.68h22.42c0.71,0,1.29,0.23,1.74,0.68c0.45,0.45,0.68,1,0.68,1.64v9.47c0,0.52-0.16,1-0.48,1.45
					c-0.32,0.45-0.74,0.74-1.26,0.87l-3.29,0.77v11.79h3.67l17.3-25.61c0.51-0.71,1.16-1.06,1.93-1.06h11.88
					c0.64,0,1.19,0.23,1.64,0.68c0.45,0.45,0.68,1,0.68,1.64v9.47c0,1.22-0.58,2-1.74,2.32l-4.06,1.06l-12.85,18.94l14.78,20.68
					L156.47,228.91z"/>
				<path class="st0" d="M193.05,172.58c5.1,0,9.53,0.32,13.31,0.97c3.77,0.64,6.92,1.9,9.44,3.77c2.52,1.87,4.39,4.51,5.61,7.92
					c1.23,3.42,1.84,7.89,1.84,13.43v17.59c0,5.6-0.58,10.16-1.74,13.67c-1.16,3.51-2.98,6.28-5.47,8.31
					c-2.49,2.03-5.63,3.42-9.44,4.15c-3.81,0.74-8.32,1.11-13.55,1.11c-5.36,0-9.92-0.35-13.69-1.06c-3.77-0.71-6.87-2.04-9.29-4.01
					c-2.42-1.96-4.18-4.72-5.27-8.26c-1.1-3.54-1.65-8.18-1.65-13.91v-17.59c0-5.6,0.58-10.13,1.74-13.58
					c1.16-3.45,2.97-6.09,5.42-7.92c2.45-1.84,5.55-3.06,9.29-3.67C183.33,172.89,187.82,172.58,193.05,172.58z M180.34,216.26
					c0,2.9,0.14,5.15,0.43,6.76c0.29,1.61,0.87,2.79,1.74,3.53c0.87,0.74,2.14,1.19,3.82,1.35c1.67,0.16,3.9,0.24,6.67,0.24
					c2.58,0,4.7-0.1,6.38-0.29c1.67-0.19,3.01-0.69,4.01-1.5c1-0.8,1.69-2,2.08-3.58c0.39-1.58,0.58-3.75,0.58-6.52v-18.55
					c0-1.16-0.1-2.53-0.29-4.11c-0.19-1.58-0.71-2.82-1.55-3.72c-0.58-0.51-1.35-0.92-2.32-1.21c-0.97-0.29-1.98-0.48-3.04-0.58
					c-1.06-0.1-2.13-0.14-3.19-0.14c-1.06,0-1.95,0-2.66,0c-0.64,0-1.48,0-2.51,0c-1.03,0-2.08,0.06-3.14,0.19
					c-1.06,0.13-2.06,0.34-3,0.63c-0.93,0.29-1.66,0.69-2.17,1.21c-0.45,0.45-0.81,1.05-1.06,1.79c-0.26,0.74-0.43,1.53-0.53,2.37
					c-0.1,0.84-0.16,1.66-0.19,2.46c-0.03,0.81-0.05,1.53-0.05,2.17V216.26z"/>
				<path class="st0" d="M284.69,178.09c2.06,1.87,3.54,4.36,4.44,7.49c0.9,3.13,1.35,7.2,1.35,12.22c0,2.45-0.11,4.65-0.34,6.62
					c-0.23,1.97-0.56,3.72-1.01,5.27c-0.97,3.29-2.55,5.83-4.73,7.63c-2.19,1.87-4.91,3.09-8.16,3.67
					c-3.25,0.58-7.04,0.87-11.35,0.87h-13.04v6.18l3.29,0.87c0.51,0.13,0.93,0.4,1.26,0.82c0.32,0.42,0.48,0.89,0.48,1.4v9.47
					c0,0.71-0.23,1.27-0.68,1.69c-0.45,0.42-1.03,0.63-1.74,0.63h-22.42c-0.64,0-1.19-0.21-1.64-0.63
					c-0.45-0.42-0.68-0.98-0.68-1.69v-9.47c0-1.16,0.58-1.9,1.74-2.22l3.19-0.87v-40.1l-3.19-0.77c-1.16-0.32-1.74-1.09-1.74-2.32
					v-9.47c0-0.64,0.22-1.19,0.68-1.64c0.45-0.45,1-0.68,1.64-0.68h32.85c4.83,0,8.66,0.32,11.5,0.97
					C279.92,174.94,282.69,176.29,284.69,178.09z M271.94,205.05c0.51-0.51,0.87-1.34,1.06-2.46c0.19-1.13,0.29-2.72,0.29-4.78
					c0-1.87-0.08-3.46-0.24-4.78c-0.16-1.32-0.5-2.3-1.01-2.95c-0.32-0.39-0.92-0.76-1.79-1.11c-0.87-0.35-2.5-0.53-4.88-0.53h-0.48
					h-13.04v18.07h13.04c2.06,0,3.64-0.11,4.73-0.34C270.71,205.94,271.49,205.57,271.94,205.05z"/>
				<path class="st0" d="M318.41,187.95v40.1l3.29,0.87c0.51,0.13,0.93,0.4,1.26,0.82c0.32,0.42,0.48,0.89,0.48,1.4v9.47
					c0,0.71-0.23,1.27-0.68,1.69c-0.45,0.42-1.03,0.63-1.74,0.63H298.6c-0.64,0-1.19-0.21-1.64-0.63c-0.45-0.42-0.68-0.98-0.68-1.69
					v-9.47c0-1.16,0.58-1.9,1.74-2.22l3.19-0.87v-40.1l-3.19-0.77c-1.16-0.32-1.74-1.09-1.74-2.32v-9.47c0-0.64,0.22-1.19,0.68-1.64
					c0.45-0.45,1-0.68,1.64-0.68h22.42c0.71,0,1.29,0.23,1.74,0.68c0.45,0.45,0.68,1,0.68,1.64v9.47c0,0.52-0.16,1-0.48,1.45
					c-0.32,0.45-0.74,0.74-1.26,0.87L318.41,187.95z"/>
			</g>
		</g>
		<g>
			<path class="st1" d="M370.42,245.52h-5.76v-2.08h14.01v2.08h-5.78v16.85h-2.47V245.52z"/>
			<path class="st1" d="M396.73,254.05c-0.14-2.64-0.31-5.81-0.28-8.17h-0.08c-0.65,2.22-1.43,4.58-2.39,7.19l-3.34,9.18h-1.85
				l-3.06-9.01c-0.9-2.67-1.66-5.11-2.19-7.36h-0.06c-0.06,2.36-0.2,5.53-0.37,8.37l-0.51,8.11h-2.33l1.32-18.92h3.12l3.23,9.15
				c0.79,2.33,1.43,4.41,1.91,6.37h0.08c0.48-1.91,1.15-3.99,1.99-6.37l3.37-9.15h3.12l1.18,18.92h-2.39L396.73,254.05z"/>
		</g>
	</g>
</g>
</svg>
