<?xml version="1.0" standalone="no"?>
<!DOCTYPE svg PUBLIC "-//W3C//DTD SVG 20010904//EN"
 "http://www.w3.org/TR/2001/REC-SVG-20010904/DTD/svg10.dtd">
<svg version="1.0" xmlns="http://www.w3.org/2000/svg"
 width="17650.000000pt" height="15230.000000pt" viewBox="0 0 17650.000000 15230.000000"
 preserveAspectRatio="xMidYMid meet">

<g transform="translate(0.000000,15230.000000) scale(0.100000,-0.100000)"
fill="#000000" stroke="none">
<path d="M0 76155 l0 -76145 88245 0 88245 0 0 76145 0 76145 -88245 0 -88245
0 0 -76145z m131100 18195 l0 -22770 -59520 0 -59520 0 0 22763 c0 12520 3
22767 7 22770 3 4 26787 7 59520 7 l59513 0 0 -22770z m11080 -15275 l0 -435
-1210 0 -1210 0 0 -3530 0 -3530 -520 0 -520 0 0 3530 0 3530 -1205 0 -1205 0
0 435 0 435 2935 0 2935 0 0 -435z m3223 -1518 c779 -2211 936 -2677 1172
-3477 79 -267 209 -740 256 -932 27 -112 37 -138 51 -138 12 0 20 12 27 38
149 585 341 1218 604 1992 183 536 141 421 929 2563 l702 1907 658 0 658 0 0
-29 c0 -16 110 -1798 245 -3960 135 -2162 245 -3933 245 -3936 0 -3 -226 -5
-502 -5 l-503 0 -98 1718 c-177 3077 -204 3669 -215 4627 -6 474 -9 560 -21
560 -10 0 -30 -52 -63 -165 -163 -552 -436 -1391 -658 -2025 -89 -255 -1167
-3225 -1602 -4415 l-93 -255 -390 0 -390 0 -647 1905 c-357 1048 -718 2119
-804 2380 -319 976 -539 1723 -717 2440 -18 74 -37 135 -43 135 -5 0 -12 -108
-16 -255 -17 -679 -61 -1689 -113 -2665 -25 -451 -229 -3770 -241 -3912 l-6
-73 -489 0 c-336 0 -489 3 -489 11 0 5 124 1784 275 3953 151 2169 275 3948
275 3955 0 8 173 11 658 11 l657 0 688 -1953z m-121638 -13103 c208 -49 363
-130 486 -253 102 -102 148 -180 200 -336 50 -149 6599 -17988 6607 -17997 6
-6 3071 8542 6263 17463 119 333 231 634 249 670 142 283 387 437 745 469 153
14 10732 14 10876 0 256 -24 449 -114 603 -281 114 -122 187 -257 234 -428
l27 -96 3 -2085 c2 -1452 0 -2118 -8 -2192 -40 -395 -250 -665 -617 -794 -54
-19 -399 -108 -768 -197 l-670 -162 -3 -8402 -2 -8402 42 -12 c614 -163 1403
-385 1471 -414 235 -100 411 -273 491 -486 13 -36 32 -99 42 -140 17 -70 18
-194 21 -2177 4 -2267 5 -2208 -47 -2364 -120 -357 -400 -590 -765 -637 -68
-9 -1281 -11 -4910 -9 l-4820 3 -79 22 c-104 30 -247 99 -322 156 -78 59 -198
186 -247 260 -53 80 -95 175 -126 287 l-26 95 -3 2060 c-2 1401 0 2096 8 2172
35 369 219 621 560 764 45 19 383 108 843 224 423 106 771 195 773 198 6 5
245 12386 242 12484 l-3 72 -3384 -9067 c-1861 -4987 -3401 -9103 -3421 -9148
-135 -295 -370 -490 -675 -560 -77 -18 -181 -19 -2610 -19 l-2530 0 -99 27
c-241 67 -408 195 -519 398 -20 36 -65 142 -100 235 -437 1164 -6731 17814
-6733 17812 -3 -3 278 -12230 281 -12235 1 -1 317 -86 701 -187 782 -207 772
-204 869 -253 108 -54 173 -102 261 -194 95 -99 172 -219 214 -335 64 -177 61
-49 58 -2363 l-3 -2105 -23 -80 c-46 -166 -135 -318 -256 -439 -125 -125 -264
-204 -446 -255 l-95 -26 -4875 0 -4875 0 -84 23 c-170 46 -296 119 -429 247
-139 132 -234 298 -278 485 -17 70 -18 200 -22 2120 -2 1354 1 2084 7 2160 14
152 41 255 95 365 96 193 258 333 491 424 44 17 386 114 760 216 374 102 688
188 698 191 16 5 17 414 17 8407 l0 8402 -658 159 c-361 87 -693 170 -737 183
-80 25 -236 98 -287 135 -157 111 -268 260 -327 438 -58 179 -54 27 -58 2270
-3 1408 -1 2090 7 2167 20 209 84 370 208 524 165 203 397 331 647 358 44 5
2481 8 5415 7 l5335 -1 90 -21z m46975 3 c308 -70 496 -213 621 -472 37 -76
947 -2834 3729 -11304 2024 -6162 3681 -11206 3683 -11208 2 -2 354 -98 783
-214 428 -116 808 -222 844 -236 117 -47 201 -104 306 -208 115 -115 186 -221
234 -352 64 -178 61 -48 57 -2368 -3 -1922 -4 -2116 -19 -2175 -41 -161 -90
-264 -178 -374 -150 -189 -384 -313 -650 -345 -71 -9 -1352 -11 -5035 -9
l-4940 3 -80 23 c-100 28 -230 90 -309 146 -72 52 -209 191 -255 259 -74 109
-129 256 -150 398 -12 82 24 4027 38 4189 28 319 157 540 402 693 108 67 173
90 714 255 363 111 490 153 489 164 -2 21 -955 2881 -963 2891 -10 10 -6992
51 -7001 40 -6 -7 -641 -2853 -644 -2889 -1 -12 114 -51 524 -176 629 -191
655 -203 801 -348 131 -129 206 -261 262 -458 l22 -77 3 -2105 c3 -2241 4
-2207 -45 -2365 -105 -337 -403 -584 -767 -634 -55 -8 -1513 -11 -4964 -11
-5369 0 -4977 -4 -5153 60 -146 53 -252 124 -370 246 -144 150 -214 310 -239
549 -8 68 -10 749 -7 2155 3 1857 5 2062 19 2125 75 321 254 528 560 648 51
20 498 150 993 288 495 138 900 252 901 252 0 1 1658 5040 3683 11197 2660
8083 3696 11220 3728 11285 138 281 374 444 686 474 45 5 1776 8 3847 7 3501
-2 3770 -3 3840 -19z m21826 13 c189 -17 363 -78 497 -174 86 -61 214 -197
270 -287 54 -87 98 -200 121 -312 14 -68 16 -302 16 -2177 0 -2278 3 -2154
-52 -2315 -80 -232 -255 -448 -458 -563 -93 -52 -209 -84 -912 -248 l-678
-159 0 -2467 0 -2468 4980 0 4980 0 -2 2467 -3 2468 -670 162 c-368 89 -699
172 -734 183 -342 111 -550 331 -634 668 l-21 87 -4 2115 c-2 1543 0 2137 8
2195 32 223 129 407 301 568 162 153 339 234 559 257 131 13 9470 13 9600 0
237 -25 422 -113 589 -281 123 -123 201 -251 253 -421 l23 -73 3 -2145 c2
-1559 0 -2167 -8 -2225 -16 -107 -61 -243 -111 -335 -30 -54 -70 -103 -143
-175 -85 -84 -117 -108 -201 -152 -55 -28 -141 -65 -190 -81 -50 -17 -386
-101 -747 -188 l-658 -159 0 -8402 c0 -7993 1 -8402 18 -8407 9 -3 307 -84
662 -181 355 -97 681 -187 725 -202 331 -107 541 -315 628 -620 l22 -78 3
-2163 c2 -2085 2 -2166 -17 -2255 -37 -183 -123 -339 -254 -464 -128 -121
-257 -195 -424 -241 l-98 -27 -4870 0 c-4680 0 -4873 1 -4955 18 -182 40 -333
120 -455 242 -140 140 -222 313 -255 540 -13 96 -13 4204 0 4300 45 309 190
523 452 665 117 63 169 79 889 275 376 102 692 188 702 191 16 5 17 143 17
2715 l0 2709 -4980 0 -4980 0 0 -2709 0 -2710 53 -15 c28 -8 336 -89 682 -181
667 -175 760 -202 840 -243 261 -131 463 -404 514 -696 8 -41 11 -735 11
-2157 0 -2301 3 -2178 -60 -2351 -117 -319 -410 -540 -784 -588 -56 -7 -1572
-10 -4911 -8 l-4830 3 -85 23 c-312 83 -560 307 -659 594 -54 156 -52 76 -49
2383 l3 2130 27 97 c80 290 270 489 578 605 36 14 353 103 705 199 352 96 664
181 693 190 l52 15 0 8402 0 8402 -677 164 c-373 90 -709 175 -748 189 -343
121 -547 354 -617 702 -10 52 -13 490 -13 2220 l0 2155 23 85 c46 173 133 320
268 451 164 158 346 245 561 268 109 12 9492 13 9619 1z m38359 0 c354 -31
598 -191 740 -485 43 -88 774 -2306 3731 -11310 2022 -6160 3678 -11201 3678
-11202 1 -1 361 -99 800 -218 524 -141 824 -227 871 -249 254 -117 442 -342
529 -631 l21 -70 3 -2125 c2 -1568 0 -2145 -8 -2200 -62 -400 -348 -689 -765
-771 -59 -12 -845 -14 -5055 -14 l-4985 0 -85 23 c-165 46 -294 118 -418 236
-157 149 -256 329 -291 530 -15 83 -13 533 9 2531 21 1832 19 1785 70 1942 49
150 143 287 263 383 127 102 237 146 782 311 275 83 504 155 509 159 6 6 -945
2890 -959 2908 -3 4 -6997 44 -7001 39 -8 -8 -644 -2882 -642 -2897 3 -14 114
-50 753 -241 149 -45 306 -98 351 -119 219 -105 387 -313 471 -585 l28 -90 0
-2180 0 -2180 -23 -85 c-30 -108 -79 -214 -136 -294 -49 -69 -159 -177 -231
-226 -75 -51 -224 -118 -321 -142 l-89 -23 -4965 0 -4965 0 -89 23 c-306 78
-555 294 -656 570 -63 173 -60 51 -60 2342 0 2289 -3 2169 59 2340 87 237 274
413 549 517 35 13 467 136 960 273 492 138 897 252 899 253 1 2 1658 5035
3682 11184 2024 6150 3694 11215 3711 11255 78 188 223 345 394 428 112 54
197 78 320 89 122 12 7428 13 7561 1z m22080 -16 c229 -54 412 -165 555 -337
76 -91 162 -262 192 -382 l23 -90 0 -2130 0 -2130 -26 -95 c-89 -317 -305
-578 -571 -688 -46 -19 -337 -92 -790 -199 l-718 -168 0 -8302 0 -8303 3258 0
3259 0 192 708 c106 389 207 740 224 781 88 214 306 425 526 510 185 71 -22
65 2291 69 1475 2 2110 0 2169 -8 115 -15 249 -60 351 -117 120 -67 296 -243
363 -363 57 -102 102 -237 117 -351 8 -60 10 -1056 8 -3474 -3 -3230 -4 -3394
-22 -3465 -41 -170 -112 -296 -240 -429 -177 -182 -327 -261 -551 -290 -68 -9
-2530 -11 -10255 -9 l-10165 3 -80 23 c-100 28 -230 90 -309 146 -70 51 -208
190 -253 256 -80 118 -136 274 -153 423 -8 63 -10 757 -8 2177 4 2316 -1 2132
69 2310 87 218 256 380 502 481 52 21 389 118 777 224 377 102 693 188 703
191 16 5 17 412 15 8407 l-3 8402 -485 117 c-996 242 -998 242 -1152 334 -96
58 -217 173 -276 264 -53 81 -98 196 -126 320 l-21 95 0 2145 0 2145 27 98
c112 405 454 687 873 721 22 1 2196 2 4830 2 l4790 -1 90 -21z"/>
<path d="M63245 109200 c-1818 -44 -3361 -176 -4630 -395 -1508 -260 -2778
-771 -3775 -1518 -1166 -875 -1977 -2170 -2450 -3912 -260 -958 -429 -2105
-504 -3410 -41 -714 -41 -664 -41 -5390 0 -4716 0 -4720 40 -5445 166 -2984
739 -5000 1833 -6459 880 -1173 2209 -2025 3909 -2507 1769 -502 4750 -751
7938 -663 1688 46 3227 200 4494 450 1339 264 2430 691 3381 1322 725 481
1309 1048 1799 1747 1145 1632 1698 3846 1782 7135 15 608 7 8909 -9 9230 -40
783 -81 1295 -142 1790 -261 2087 -797 3592 -1714 4810 -333 442 -793 902
-1227 1225 -1079 805 -2414 1335 -4054 1609 -1191 199 -2445 313 -4080 372
-371 13 -2120 19 -2550 9z m3020 -6448 c630 -44 898 -75 1240 -143 180 -36
465 -108 618 -156 413 -130 795 -343 972 -543 262 -295 456 -718 555 -1210 61
-303 134 -1013 160 -1565 13 -280 13 -8548 0 -8925 -47 -1322 -193 -2151 -486
-2745 -121 -247 -244 -423 -424 -609 -190 -196 -372 -330 -620 -456 -592 -300
-1204 -400 -2820 -462 -401 -15 -1920 -15 -2390 1 -1386 45 -1937 107 -2418
272 -672 232 -1062 640 -1296 1357 -168 514 -261 1303 -296 2497 -16 537 -8
8860 8 9135 31 524 74 973 117 1225 108 637 299 1119 563 1418 234 266 574
462 1041 601 577 173 1223 274 2006 316 232 12 3280 5 3470 -8z"/>
<path d="M24940 108995 c-191 -30 -367 -121 -511 -265 -133 -132 -214 -266
-261 -435 l-23 -80 -3 -2135 c-3 -1921 -1 -2145 13 -2233 59 -355 263 -596
610 -720 39 -14 360 -95 715 -181 355 -86 662 -161 683 -167 l37 -10 0 -8403
0 -8403 -652 -178 c-359 -97 -696 -191 -748 -207 -337 -107 -542 -308 -628
-616 l-27 -97 0 -2180 0 -2180 23 -85 c30 -114 96 -249 167 -339 112 -143 318
-275 505 -324 l85 -22 4895 0 4895 0 100 28 c317 87 547 292 647 577 55 157
52 20 56 2270 2 1423 0 2104 -8 2168 -36 320 -235 604 -525 749 -85 43 -139
59 -897 259 l-678 179 0 2732 0 2733 792 -2 793 -3 4097 -5659 c2254 -3113
4120 -5688 4149 -5723 101 -125 283 -238 460 -285 l84 -23 2540 -3 c1853 -2
2562 0 2620 8 378 54 694 329 797 695 l23 80 3 2120 c2 1550 0 2140 -8 2193
-48 307 -279 602 -564 721 -40 16 -470 134 -956 261 -559 146 -891 238 -901
248 -10 10 -1406 1960 -3104 4336 l-3087 4318 59 87 c33 47 1242 1830 2688
3961 1445 2131 2631 3878 2634 3882 4 4 400 111 881 237 481 126 902 239 934
250 82 29 215 101 283 154 155 119 260 289 309 502 18 77 19 167 19 2260 l0
2180 -28 90 c-113 361 -416 626 -777 680 -143 22 -5148 22 -5290 0 -114 -17
-188 -42 -287 -95 -203 -110 -274 -190 -635 -725 -164 -242 -1802 -2667 -3641
-5390 l-3344 -4950 -771 -3 -772 -2 0 2469 c0 2343 1 2470 18 2475 9 3 325 77
702 165 377 89 717 172 756 186 286 103 509 364 606 710 l23 80 3 2075 c2
1525 0 2100 -8 2170 -27 218 -117 404 -269 558 -157 159 -355 253 -591 282
-57 7 -1619 10 -4855 9 -3914 -1 -4785 -3 -4855 -14z"/>
<path d="M80573 108999 c-346 -45 -665 -306 -777 -635 -54 -159 -51 -44 -51
-2334 l0 -2125 23 -105 c13 -57 37 -138 54 -179 85 -204 256 -371 475 -465
106 -45 104 -44 813 -216 344 -83 642 -155 663 -161 l37 -10 0 -8402 0 -8402
-693 -189 c-380 -103 -737 -206 -792 -227 -222 -86 -391 -234 -488 -426 -40
-77 -75 -210 -87 -324 -14 -139 -14 -4089 0 -4228 31 -301 167 -526 416 -690
95 -62 207 -107 331 -132 89 -19 223 -19 4960 -17 l4868 3 99 27 c366 101 613
361 680 718 14 73 16 317 16 2189 0 1429 -3 2126 -11 2167 -54 308 -282 596
-564 713 -39 17 -398 117 -798 222 l-727 193 0 1297 0 1298 3308 4 c2299 3
3377 7 3537 15 1415 71 2196 146 3143 302 978 162 1674 378 2402 746 739 373
1428 906 1924 1489 1044 1223 1610 2936 1811 5470 50 636 69 1207 69 2070 0
862 -15 1327 -64 2020 -177 2491 -680 4163 -1630 5425 -566 751 -1252 1307
-2185 1770 -549 272 -1132 490 -1809 675 -944 259 -2396 415 -4226 455 -542
12 -14637 11 -14727 -1z m14912 -6447 c712 -51 1022 -108 1342 -247 265 -116
469 -241 594 -365 225 -222 389 -632 469 -1175 127 -858 157 -2524 64 -3585
-59 -678 -167 -1085 -371 -1399 -73 -113 -236 -278 -347 -353 -371 -248 -953
-371 -1976 -418 -130 -6 -1406 -10 -3227 -10 l-3013 0 0 3785 0 3786 3153 -4
c2232 -3 3199 -7 3312 -15z"/>
<path d="M108505 109003 c-231 -30 -410 -117 -571 -277 -140 -139 -228 -299
-265 -483 -19 -89 -19 -168 -17 -2240 l3 -2148 27 -100 c83 -303 271 -506 575
-621 37 -14 379 -102 758 -194 l690 -168 3 -8404 2 -8405 -652 -177 c-359 -98
-699 -193 -755 -211 -344 -114 -545 -317 -626 -632 l-22 -88 0 -2175 0 -2175
27 -98 c32 -114 96 -242 169 -333 107 -134 307 -262 494 -316 l80 -23 4855 -3
c5311 -3 4944 -7 5118 52 355 121 577 398 623 778 6 54 9 813 7 2168 l-3 2085
-23 85 c-45 168 -164 367 -285 476 -107 96 -228 165 -362 206 -44 14 -385 106
-757 204 l-678 179 0 8402 c0 7993 1 8402 18 8407 9 3 333 79 718 170 474 111
727 175 779 197 268 111 487 381 568 699 l22 85 0 2130 0 2130 -23 90 c-46
182 -173 387 -307 498 -129 106 -263 172 -436 213 -71 18 -282 19 -4899 20
-2654 1 -4838 -1 -4855 -3z"/>
<path d="M66697 57030 c-13 -28 -1935 -6885 -1932 -6888 4 -4 3707 36 3711 40
1 2 -395 1540 -882 3418 -486 1878 -885 3421 -887 3430 -3 13 -5 13 -10 0z"/>
<path d="M126992 57005 c-243 -851 -1923 -6857 -1919 -6861 6 -6 3698 33 3704
40 4 4 -1717 6667 -1756 6801 l-18 60 -11 -40z"/>
</g>
</svg>
